<?xml version="1.0" standalone="no"?>
<!DOCTYPE svg PUBLIC "-//W3C//DTD SVG 20010904//EN"
 "http://www.w3.org/TR/2001/REC-SVG-20010904/DTD/svg10.dtd">
<svg version="1.0" xmlns="http://www.w3.org/2000/svg"
 width="80" height="40" viewBox="0 0 215.000000 103.000000"
 preserveAspectRatio="xMidYMid meet">
<metadata>
Created by potrace 1.10, written by Peter Selinger 2001-2011
</metadata>
<g transform="translate(0.000000,103.000000) scale(0.050000,-0.050000)"
fill="#000000" stroke="none">
<path d="M980 1920 l0 -100 -251 0 c-287 0 -366 -26 -463 -153 l-56 -74 -6
-734 -5 -735 53 -42 c70 -55 133 -53 202 6 l56 48 10 677 10 677 225 6 225 5
0 -90 c0 -91 0 -91 70 -91 l70 0 0 350 0 350 -70 0 -70 0 0 -100z"/>
<path d="M1440 1670 l0 -350 60 0 c58 0 60 3 60 90 l0 90 216 0 c289 0 264 67
264 -705 l0 -657 49 -49 c76 -76 204 -54 249 44 42 93 29 1361 -16 1457 -87
187 -182 230 -513 230 l-249 0 0 100 c0 98 -1 100 -60 100 l-60 0 0 -350z"/>
<path d="M3800 1917 c-237 -69 -344 -324 -231 -548 49 -97 49 -97 10 -134 -46
-43 -60 -868 -17 -993 55 -158 502 -201 641 -62 l57 57 0 490 c0 476 -1 492
-42 520 l-42 29 44 60 c202 273 -90 677 -420 581z m288 -124 c145 -110 163
-306 41 -450 -62 -74 -62 -98 1 -127 l50 -22 0 -477 0 -476 -63 -32 c-47 -25
-105 -31 -238 -26 -271 11 -259 -14 -259 540 l0 456 50 33 c63 41 63 76 0 144
-238 256 139 650 418 437z"/>
</g>
</svg>
