<?xml version="1.0" standalone="no"?>
<!DOCTYPE svg PUBLIC "-//W3C//DTD SVG 20010904//EN"
 "http://www.w3.org/TR/2001/REC-SVG-20010904/DTD/svg10.dtd">
<svg version="1.0" xmlns="http://www.w3.org/2000/svg"
 width="80px" height="40px" viewBox="0 0 270.000000 128.000000"
 preserveAspectRatio="xMidYMid meet">
<metadata>
Created by potrace 1.10, written by Peter Selinger 2001-2011
</metadata>
<g transform="translate(0.000000,128.000000) scale(0.100000,-0.100000)"
fill="#000000" stroke="none">
<path d="M40 1115 c0 -82 3 -105 14 -105 10 0 12 12 8 50 l-5 50 52 0 51 0 0
-50 c0 -38 4 -50 15 -50 12 0 15 18 15 105 0 87 -3 105 -15 105 -11 0 -15 -12
-15 -45 l0 -45 -51 0 -52 0 5 45 c4 34 2 45 -8 45 -11 0 -14 -22 -14 -105z"/>
<path d="M253 1153 c-26 -10 -12 -20 29 -19 31 1 43 -3 46 -15 2 -11 -10 -18
-40 -25 -34 -7 -44 -14 -46 -32 -5 -36 14 -51 66 -50 l47 1 -3 61 c-2 42 -9
65 -20 74 -16 12 -56 15 -79 5z m77 -93 c0 -23 -45 -39 -62 -22 -18 18 -1 42
32 42 23 0 30 -4 30 -20z"/>
<path d="M400 1085 l0 -75 36 0 c48 0 74 16 74 45 0 27 -25 45 -64 45 -19 0
-26 5 -26 20 0 16 7 20 30 20 23 0 30 -4 30 -20 0 -24 18 -27 27 -4 9 24 -23
44 -69 44 l-38 0 0 -75z m85 -30 c0 -15 -8 -21 -32 -23 -30 -3 -33 -1 -33 23
0 24 3 26 33 23 24 -2 32 -8 32 -23z"/>
<path d="M530 1150 c0 -5 11 -10 25 -10 24 0 25 -2 25 -65 l0 -65 40 0 c42 0
80 26 80 54 0 21 -40 46 -72 46 -23 0 -28 4 -28 25 0 22 -4 25 -35 25 -19 0
-35 -4 -35 -10z m135 -90 c0 -21 -5 -26 -32 -28 -31 -3 -33 -1 -33 28 0 29 2
31 33 28 27 -2 32 -7 32 -28z"/>
<path d="M710 1150 c0 -5 11 -10 25 -10 24 0 25 -2 25 -65 0 -53 3 -65 16 -65
13 0 15 11 12 65 l-3 65 28 0 c15 0 27 5 27 10 0 6 -28 10 -65 10 -37 0 -65
-4 -65 -10z"/>
<path d="M858 1055 c-2 -79 0 -105 10 -105 7 0 12 15 12 40 0 38 1 40 21 30
31 -17 65 -4 79 29 27 66 -19 128 -75 103 -15 -7 -25 -8 -25 -2 0 6 -4 10 -9
10 -6 0 -11 -47 -13 -105z m91 71 c17 -20 10 -77 -11 -90 -26 -16 -52 4 -56
45 -5 48 40 78 67 45z"/>
<path d="M1042 1144 c-17 -12 -22 -25 -22 -59 0 -34 5 -47 22 -59 23 -17 55
-20 82 -10 30 11 16 23 -20 17 -29 -5 -40 -2 -50 12 -22 30 -17 35 41 35 48 0
55 2 55 20 0 27 -35 60 -63 60 -12 0 -33 -7 -45 -16z m76 -26 c3 -15 -4 -18
-37 -18 -43 0 -50 7 -29 28 18 18 62 11 66 -10z"/>
<path d="M1375 1128 c-13 -64 -27 -98 -41 -98 -9 0 -14 -11 -14 -35 0 -24 5
-35 15 -35 9 0 15 9 15 25 0 24 2 25 65 25 63 0 65 -1 65 -25 0 -14 5 -25 10
-25 6 0 10 16 10 35 0 24 -5 35 -15 35 -12 0 -15 14 -15 65 l0 65 -44 0 c-42
0 -45 -2 -51 -32z m75 -43 l0 -55 -40 0 c-36 0 -40 2 -32 18 5 9 12 34 16 55
6 31 11 37 31 37 24 0 25 -3 25 -55z"/>
<path d="M1548 1149 c-22 -12 -24 -57 -3 -65 13 -5 12 -10 -5 -31 -23 -30 -25
-43 -6 -43 7 0 19 14 26 30 9 22 19 30 37 30 22 0 25 -4 21 -30 -3 -20 0 -30
9 -30 10 0 13 19 13 75 l0 75 -37 0 c-21 0 -46 -5 -55 -11z m72 -34 c0 -21 -5
-25 -29 -25 -17 0 -33 5 -36 10 -13 21 4 40 35 40 25 0 30 -4 30 -25z"/>
<path d="M1702 1144 c-17 -12 -22 -25 -22 -58 0 -64 40 -93 91 -66 30 17 22
30 -10 17 -23 -8 -33 -8 -45 2 -20 17 -21 61 -2 87 13 17 18 18 45 7 32 -12
40 -6 19 15 -17 17 -49 15 -76 -4z"/>
<path d="M1825 1085 c0 -53 4 -75 13 -75 7 0 12 14 12 35 0 34 1 35 41 35 l42
0 -6 -35 c-4 -26 -2 -35 9 -35 11 0 14 16 14 75 0 59 -3 75 -15 75 -11 0 -13
-8 -8 -30 5 -29 5 -30 -36 -30 -39 0 -41 2 -41 30 0 17 -5 30 -12 30 -9 0 -13
-22 -13 -75z"/>
<path d="M2013 1153 c-26 -10 -12 -20 29 -19 31 1 43 -3 46 -15 2 -11 -10 -18
-40 -25 -34 -7 -44 -14 -46 -32 -5 -36 14 -51 67 -50 l47 1 -4 61 c-3 40 -9
65 -20 74 -16 12 -56 15 -79 5z m77 -93 c0 -23 -45 -39 -62 -22 -18 18 -1 42
32 42 23 0 30 -4 30 -20z"/>
<path d="M1193 1013 c-6 -21 -9 -40 -7 -43 8 -8 44 43 44 63 0 31 -25 18 -37
-20z"/>
<path d="M1330 904 c0 -3 6 -11 13 -18 11 -11 17 -11 30 -1 25 18 21 25 -13
25 -16 0 -30 -3 -30 -6z"/>
<path d="M1860 900 l45 -7 -42 -1 c-32 -2 -43 -6 -43 -18 0 -8 4 -13 9 -10 5
3 12 -5 15 -19 6 -24 36 -36 36 -15 0 16 19 12 42 -10 12 -11 28 -20 35 -20 7
0 13 -4 13 -9 0 -5 8 -12 18 -15 29 -10 92 -124 92 -168 0 -21 5 -38 11 -38 6
0 9 -6 6 -14 -3 -8 1 -20 9 -26 12 -11 14 -6 14 29 0 22 -4 41 -10 41 -5 0
-10 13 -10 29 0 48 -26 94 -77 139 -80 70 -95 82 -109 82 -10 0 -12 9 -7 30
l6 30 -49 -2 -49 -1 45 -7z"/>
<path d="M2280 480 c-8 -5 -48 -10 -87 -10 -42 0 -73 -4 -73 -10 0 -6 -33 -10
-78 -10 -43 0 -82 -3 -85 -6 -7 -7 -39 -11 -164 -20 -46 -3 -83 -9 -83 -13 0
-4 -49 -11 -109 -14 -59 -4 -120 -11 -135 -17 -15 -5 -56 -10 -92 -10 -36 0
-64 -4 -64 -10 0 -6 -35 -10 -85 -10 -47 0 -85 -3 -85 -8 0 -4 -17 -8 -37 -10
-21 -1 -80 -5 -131 -8 -50 -3 -92 -9 -92 -14 0 -5 -35 -11 -78 -13 -42 -3 -93
-8 -112 -11 -19 -4 -70 -9 -112 -12 -43 -4 -78 -10 -78 -15 0 -5 -4 -9 -10 -9
-5 0 -10 16 -10 35 l0 35 -150 0 -150 0 0 -150 0 -150 180 0 180 0 0 36 c0 33
-2 35 -27 32 -26 -3 -28 0 -31 40 -2 25 1 42 7 42 6 0 11 -16 11 -35 0 -34 1
-35 39 -35 39 0 40 -1 43 -38 l3 -37 70 4 c39 1 78 7 87 12 9 5 48 9 87 9 39
0 71 4 71 8 0 5 53 12 117 16 65 3 120 11 121 16 2 6 42 10 88 10 46 0 84 4
84 8 0 5 53 12 117 16 65 3 122 11 127 16 6 6 43 10 83 10 40 0 73 4 73 8 0 5
53 12 117 16 65 3 122 11 127 16 6 6 45 10 88 10 43 0 78 4 78 9 0 4 44 11 98
14 53 3 105 8 115 12 18 8 24 35 7 35 -5 0 -10 11 -10 25 0 19 5 25 23 25 37
0 45 15 36 73 -15 97 -16 97 -57 97 -20 0 -44 -5 -52 -10z m75 -56 c3 -26 9
-53 12 -60 3 -10 -5 -16 -26 -20 -29 -6 -31 -9 -31 -50 l0 -44 -42 0 c-24 0
-88 -7 -143 -15 -55 -8 -117 -15 -137 -15 -21 0 -38 -4 -38 -10 0 -6 -29 -10
-67 -10 -38 0 -113 -7 -167 -15 -55 -8 -117 -15 -138 -15 -21 0 -38 -4 -38
-10 0 -6 -28 -10 -62 -10 -35 0 -108 -7 -163 -15 -55 -8 -117 -15 -137 -15
-21 0 -38 -4 -38 -10 0 -6 -31 -10 -72 -10 -40 0 -113 -7 -163 -15 -49 -8
-109 -15 -132 -15 -23 0 -45 -5 -48 -10 -3 -6 -33 -10 -66 -10 -53 0 -59 2
-59 21 0 31 -26 52 -55 45 -22 -6 -25 -3 -25 24 0 16 -4 30 -10 30 -8 0 -16
70 -7 70 27 2 403 46 537 64 63 8 183 22 265 31 83 9 157 20 165 24 8 4 38 8
65 9 70 3 313 32 355 42 31 7 151 20 343 37 31 3 57 9 57 14 0 5 13 9 29 9 27
0 29 -4 36 -46z m-1911 -130 c13 -5 16 -25 16 -115 l0 -109 30 0 c23 0 30 -4
30 -20 0 -19 -7 -20 -160 -20 l-160 0 0 135 0 135 114 0 c63 0 121 -3 130 -6z"/>
<path d="M2395 308 c-6 -6 -9 -55 -7 -114 l3 -104 -30 0 c-29 0 -31 -2 -31
-37 l0 -38 180 3 180 3 0 134 c0 73 -3 140 -6 149 -5 14 -27 16 -143 16 -85
-1 -140 -5 -146 -12z m263 -16 c9 -7 12 -40 10 -133 l-3 -124 -157 -3 c-153
-2 -158 -2 -158 18 0 15 7 20 29 20 37 0 42 15 41 120 -1 47 -1 91 -1 98 1 14
217 18 239 4z"/>
</g>
</svg>
