<?xml version="1.0" standalone="no"?>
<!DOCTYPE svg PUBLIC "-//W3C//DTD SVG 20010904//EN"
 "http://www.w3.org/TR/2001/REC-SVG-20010904/DTD/svg10.dtd">
<svg version="1.0" xmlns="http://www.w3.org/2000/svg"
 width="80" height="40px" viewBox="0 0 267.000000 126.000000"
 preserveAspectRatio="xMidYMid meet">
<metadata>
Created by potrace 1.10, written by Peter Selinger 2001-2011
</metadata>
<g transform="translate(0.000000,126.000000) scale(0.100000,-0.100000)"
fill="#000000" stroke="none">
<path d="M750 1155 c0 -82 3 -105 14 -105 10 0 12 12 8 50 l-5 50 52 0 51 0 0
-50 c0 -38 4 -50 15 -50 12 0 15 18 15 105 0 87 -3 105 -15 105 -11 0 -15 -12
-15 -45 l0 -45 -50 0 -50 0 0 45 c0 25 -4 45 -10 45 -6 0 -10 -42 -10 -105z"/>
<path d="M953 1193 c-26 -10 -12 -20 29 -19 31 1 43 -3 46 -15 2 -11 -10 -18
-40 -25 -34 -7 -44 -14 -46 -32 -5 -36 14 -51 67 -50 l47 1 -4 61 c-3 40 -9
65 -20 74 -16 12 -56 15 -79 5z m77 -93 c0 -23 -45 -39 -62 -22 -18 18 -1 42
32 42 23 0 30 -4 30 -20z"/>
<path d="M1110 1125 l0 -75 36 0 c48 0 74 16 74 45 0 27 -25 45 -64 45 -19 0
-26 5 -26 20 0 16 7 20 30 20 23 0 30 -4 30 -20 0 -24 18 -27 27 -4 9 24 -23
44 -69 44 l-38 0 0 -75z m85 -30 c0 -15 -8 -21 -32 -23 -30 -3 -33 -1 -33 23
0 24 3 26 33 23 24 -2 32 -8 32 -23z"/>
<path d="M1240 1190 c0 -5 11 -10 25 -10 24 0 25 -2 25 -65 l0 -65 40 0 c42 0
80 26 80 54 0 21 -40 46 -73 46 -26 0 -29 3 -25 25 5 23 2 25 -33 25 -22 0
-39 -4 -39 -10z m135 -90 c0 -21 -5 -26 -32 -28 -31 -3 -33 -1 -33 28 0 29 2
31 33 28 27 -2 32 -7 32 -28z"/>
<path d="M1410 1190 c0 -5 11 -10 25 -10 24 0 25 -2 25 -65 0 -53 3 -65 16
-65 13 0 15 11 12 65 l-3 65 28 0 c15 0 27 5 27 10 0 6 -28 10 -65 10 -37 0
-65 -4 -65 -10z"/>
<path d="M1565 1095 c0 -77 3 -105 13 -105 7 0 12 15 12 40 0 38 1 40 21 30
31 -17 65 -4 79 29 27 66 -19 128 -75 103 -15 -7 -25 -8 -25 -2 0 6 -6 10 -12
10 -10 0 -13 -28 -13 -105z m94 71 c17 -20 10 -77 -11 -90 -26 -16 -52 4 -56
45 -5 48 40 78 67 45z"/>
<path d="M1752 1184 c-17 -12 -22 -25 -22 -59 0 -34 5 -47 22 -59 23 -17 55
-20 82 -10 30 11 16 23 -20 17 -29 -5 -40 -2 -50 12 -22 30 -17 35 41 35 48 0
55 2 55 20 0 27 -35 60 -63 60 -12 0 -33 -7 -45 -16z m76 -26 c3 -15 -4 -18
-37 -18 -43 0 -50 7 -29 28 18 18 62 11 66 -10z"/>
<path d="M2077 1148 c-4 -36 -13 -58 -27 -70 -23 -19 -25 -28 -7 -28 23 0 47
35 55 81 6 35 12 45 30 47 21 3 22 0 22 -62 0 -37 4 -66 10 -66 6 0 10 32 10
75 l0 75 -44 0 -43 0 -6 -52z"/>
<path d="M2243 1190 c-27 -11 -32 -57 -8 -66 13 -5 12 -10 -5 -31 -23 -30 -25
-43 -6 -43 7 0 19 14 26 30 9 22 19 30 37 30 22 0 25 -4 21 -30 -3 -20 0 -30
9 -30 10 0 13 19 13 75 l0 75 -32 -1 c-18 0 -43 -4 -55 -9z m67 -35 c0 -21 -5
-25 -29 -25 -17 0 -33 5 -36 10 -13 21 4 40 35 40 25 0 30 -4 30 -25z"/>
<path d="M2380 1125 l0 -75 36 0 c48 0 74 16 74 45 0 27 -25 45 -64 45 -19 0
-26 5 -26 20 0 16 7 20 30 20 23 0 30 -4 30 -20 0 -24 18 -27 27 -4 9 24 -23
44 -69 44 l-38 0 0 -75z m85 -30 c0 -15 -8 -21 -32 -23 -30 -3 -33 -1 -33 23
0 24 3 26 33 23 24 -2 32 -8 32 -23z"/>
<path d="M2543 1193 c-26 -10 -12 -20 29 -19 31 1 43 -3 46 -15 2 -11 -10 -18
-40 -25 -34 -7 -44 -14 -46 -32 -5 -36 14 -51 67 -50 l47 1 -4 61 c-3 40 -9
65 -20 74 -16 12 -56 15 -79 5z m77 -93 c0 -23 -45 -39 -62 -22 -18 18 -1 42
32 42 23 0 30 -4 30 -20z"/>
<path d="M1903 1053 c-6 -21 -9 -40 -7 -43 8 -8 44 43 44 63 0 31 -25 18 -37
-20z"/>
<path d="M760 920 c0 -5 5 -10 10 -10 23 0 8 -19 -20 -25 -16 -4 -30 -11 -30
-16 0 -5 -5 -9 -10 -9 -22 0 -120 -97 -120 -119 0 -4 -6 -21 -14 -37 -17 -35
-25 -128 -11 -132 6 -1 13 19 17 45 9 61 29 123 40 123 4 0 8 5 8 11 0 6 18
27 40 47 58 54 68 62 80 62 5 0 10 5 10 10 0 6 9 10 20 10 11 0 20 -4 20 -10
0 -5 5 -10 10 -10 6 0 10 7 10 16 0 8 5 12 10 9 6 -3 10 1 10 9 0 9 5 16 10
16 6 0 10 5 10 10 0 6 -22 10 -50 10 -27 0 -50 -4 -50 -10z"/>
<path d="M350 511 c0 -12 -4 -21 -10 -21 -6 0 -10 -28 -10 -65 l0 -65 30 0
c25 0 30 -4 30 -24 0 -13 -6 -26 -12 -29 -10 -3 -9 -9 4 -22 13 -14 38 -19
117 -23 56 -2 101 -9 101 -13 0 -5 35 -9 78 -9 43 0 82 -4 88 -10 5 -5 62 -13
127 -16 64 -4 117 -11 117 -16 0 -4 32 -8 71 -8 39 0 79 -5 89 -10 11 -6 69
-13 130 -17 60 -3 110 -10 110 -15 0 -4 35 -8 78 -8 43 0 82 -4 88 -10 5 -5
62 -13 127 -16 64 -4 117 -11 117 -16 0 -4 32 -8 71 -8 39 0 78 -4 87 -9 9 -4
49 -11 88 -15 l71 -7 7 41 c6 36 9 40 36 40 17 0 30 5 30 10 0 11 -49 14 -74
4 -10 -4 -16 -18 -16 -35 l0 -29 -65 0 c-37 0 -65 4 -65 10 0 6 -17 10 -38 10
-21 0 -83 7 -138 15 -54 8 -125 15 -157 15 -31 0 -65 4 -75 9 -21 11 -278 41
-349 41 -29 0 -53 5 -53 10 0 6 -17 10 -38 10 -21 0 -83 7 -138 15 -54 8 -129
15 -166 15 -38 0 -68 4 -68 8 0 7 -161 29 -297 39 -37 3 -63 10 -64 17 -1 6 0
25 1 42 1 27 -3 32 -29 37 -28 6 -31 10 -31 47 0 22 5 40 10 40 6 0 10 9 10
20 0 22 27 27 58 11 9 -5 87 -16 172 -25 158 -16 202 -21 255 -30 38 -6 263
-34 330 -41 28 -2 61 -7 75 -9 14 -3 88 -12 165 -21 77 -9 172 -20 210 -25
175 -23 236 -31 320 -41 193 -22 240 -27 247 -23 13 8 19 -36 10 -70 -6 -19
-7 -37 -4 -40 14 -14 22 -3 22 29 0 19 5 35 10 35 15 0 12 -97 -2 -107 -7 -4
-23 -6 -34 -5 -18 3 -22 -3 -26 -33 -2 -20 -2 -38 1 -39 3 -2 85 -3 181 -2
l175 1 3 130 c4 191 17 175 -144 175 -107 0 -139 -3 -150 -15 -9 -8 -11 -15
-5 -15 6 0 11 -9 11 -20 0 -11 -7 -20 -15 -20 -8 0 -15 4 -15 9 0 5 -35 12
-77 15 -43 3 -91 8 -108 11 -16 3 -69 8 -117 11 -49 3 -88 10 -88 14 0 5 -39
11 -87 14 -49 3 -104 8 -123 11 -19 4 -72 9 -117 11 -46 3 -83 10 -83 15 0 5
-31 9 -69 9 -38 0 -82 5 -97 10 -15 6 -76 13 -135 17 -60 3 -109 10 -109 14 0
4 -37 10 -82 13 -126 9 -158 13 -165 20 -3 3 -42 6 -85 6 -43 0 -78 4 -78 9 0
5 -35 12 -77 15 -43 3 -99 8 -125 11 -44 6 -48 5 -48 -14z m2161 -181 c0 -5 0
-65 1 -132 l0 -123 -158 0 c-135 0 -159 2 -159 15 0 10 12 16 38 18 l37 3 0
115 0 114 120 0 c73 0 120 -4 121 -10z"/>
<path d="M30 205 l0 -154 172 0 c94 1 177 3 185 6 15 6 17 41 4 62 -5 8 -19
12 -35 9 l-26 -5 0 112 c0 94 -3 114 -16 119 -9 3 -76 6 -150 6 l-134 0 0
-155z m266 121 c17 -18 20 -186 3 -186 -6 0 -4 -7 5 -15 8 -8 26 -15 40 -15
19 0 26 -5 26 -20 0 -19 -7 -20 -160 -20 l-160 0 0 135 0 135 116 0 c87 0 119
-4 130 -14z"/>
</g>
</svg>
