<?xml version="1.0" standalone="no"?>
<!DOCTYPE svg PUBLIC "-//W3C//DTD SVG 20010904//EN"
 "http://www.w3.org/TR/2001/REC-SVG-20010904/DTD/svg10.dtd">
<svg version="1.0" xmlns="http://www.w3.org/2000/svg"
 width="80px" height="40px" viewBox="0 0 256.000000 144.000000"
 preserveAspectRatio="xMidYMid meet">
<metadata>
Created by potrace 1.10, written by Peter Selinger 2001-2011
</metadata>
<g transform="translate(0.000000,144.000000) scale(0.100000,-0.100000)"
fill="#000000" stroke="none">
<path d="M60 1225 l0 -155 136 0 c113 0 138 3 152 17 12 12 13 18 4 21 -6 2
-12 10 -12 19 0 11 7 13 28 9 55 -12 168 -26 210 -26 23 0 42 -4 42 -9 0 -5
35 -11 78 -14 42 -3 93 -7 112 -10 19 -2 74 -7 123 -12 48 -4 87 -11 87 -16 0
-4 35 -10 78 -12 42 -3 93 -7 112 -10 19 -3 77 -8 128 -12 50 -4 92 -11 92
-16 0 -4 37 -10 83 -13 45 -3 93 -7 107 -9 14 -2 64 -7 113 -11 48 -5 87 -12
87 -17 0 -5 38 -9 84 -9 46 0 86 -4 88 -9 2 -4 58 -11 124 -15 138 -8 134 -11
134 82 0 24 5 42 11 42 8 0 8 5 -1 15 -7 8 -23 15 -37 15 -22 0 -24 4 -21 40
1 22 0 41 -3 44 -8 7 -246 36 -302 36 -32 0 -65 4 -75 9 -18 10 -254 40 -339
43 -29 1 -53 5 -53 9 0 3 -30 9 -67 12 -60 5 -190 21 -393 47 -36 4 -114 13
-175 20 -60 6 -129 16 -152 21 -23 5 -60 9 -83 9 -23 0 -50 5 -61 11 -27 14
-45 -2 -54 -47 -6 -34 -8 -36 -36 -30 -20 4 -29 2 -29 -8 0 -11 33 -14 83 -7
4 1 7 15 7 32 l0 32 78 -6 c42 -4 91 -9 107 -13 17 -3 67 -8 113 -11 45 -3 82
-9 82 -14 0 -5 32 -9 71 -9 39 0 79 -4 89 -10 10 -5 70 -13 134 -16 64 -4 116
-11 116 -16 0 -4 32 -8 71 -8 39 0 78 -4 88 -10 10 -5 66 -12 125 -16 59 -4
109 -11 112 -15 3 -5 39 -9 80 -9 42 0 84 -5 94 -10 10 -6 67 -13 125 -17 58
-3 108 -10 111 -15 3 -4 30 -8 60 -8 l55 0 -3 -35 c-2 -38 -3 -37 33 -52 24
-10 26 -15 19 -55 -10 -67 -12 -69 -93 -62 -40 4 -76 10 -81 15 -6 5 -33 9
-60 9 -66 0 -325 30 -351 41 -11 4 -51 10 -90 13 -38 3 -83 7 -100 9 -16 2
-72 8 -122 12 -51 4 -93 11 -93 16 0 4 -35 10 -77 13 -169 11 -328 28 -333 36
-3 5 -39 11 -80 14 -169 11 -306 27 -322 36 -10 5 -24 7 -33 4 -12 -5 -15 4
-15 50 0 31 -4 56 -10 56 -5 0 -10 -16 -10 -35 0 -19 -4 -35 -10 -35 -16 0
-12 89 4 106 8 8 26 14 40 14 23 0 26 4 26 35 l0 35 -180 0 -180 0 0 -155z
m340 120 c0 -9 -9 -15 -24 -15 -54 0 -56 -4 -56 -124 l0 -111 -120 0 -120 0 0
133 0 132 160 0 c136 0 160 -2 160 -15z"/>
<path d="M2187 1373 c-4 -3 -7 -19 -7 -35 0 -25 3 -28 35 -28 l35 0 0 -108 c0
-107 0 -109 25 -120 27 -12 231 -17 259 -6 14 5 16 28 16 155 l0 149 -178 0
c-98 0 -182 -3 -185 -7z m341 -145 l-3 -132 -115 0 c-75 -1 -119 3 -127 11
-15 14 -17 27 -3 18 6 -4 10 27 10 85 0 100 -9 120 -54 120 -16 0 -26 6 -26
15 0 13 24 15 160 15 l161 0 -3 -132z"/>
<path d="M2010 831 c0 -23 -4 -41 -10 -41 -5 0 -10 -13 -10 -30 0 -16 -4 -30
-10 -30 -5 0 -10 -9 -10 -20 0 -11 -4 -20 -10 -20 -5 0 -10 -5 -10 -11 0 -13
-87 -99 -100 -99 -5 0 -16 -8 -26 -17 -16 -16 -18 -16 -35 6 l-18 22 -7 -25
c-3 -14 -12 -30 -20 -37 -8 -6 -14 -20 -14 -30 0 -16 8 -19 58 -19 31 0 52 4
46 8 -18 12 -24 52 -8 52 8 0 14 4 14 10 0 5 11 12 25 16 14 3 25 10 25 15 0
5 5 9 11 9 14 0 69 55 69 69 0 6 5 11 10 11 6 0 10 9 10 20 0 11 5 20 10 20 6
0 10 11 10 25 0 14 5 25 10 25 6 0 10 22 10 49 0 28 -4 53 -10 56 -6 4 -10
-10 -10 -34z"/>
<path d="M140 155 c0 -82 3 -105 14 -105 10 0 12 12 8 50 l-5 50 52 0 51 0 0
-50 c0 -38 4 -50 15 -50 12 0 15 18 15 105 0 87 -3 105 -15 105 -11 0 -15 -12
-15 -45 l0 -45 -51 0 -52 0 5 45 c4 34 2 45 -8 45 -11 0 -14 -22 -14 -105z"/>
<path d="M343 193 c-26 -10 -12 -20 29 -19 31 1 43 -3 46 -15 2 -11 -10 -18
-40 -25 -34 -7 -44 -14 -46 -32 -5 -36 14 -51 67 -50 l47 1 -4 61 c-3 40 -9
65 -20 74 -16 12 -56 15 -79 5z m77 -93 c0 -23 -45 -39 -62 -22 -18 18 -1 42
32 42 23 0 30 -4 30 -20z"/>
<path d="M500 125 l0 -75 36 0 c48 0 74 16 74 45 0 27 -25 45 -64 45 -19 0
-26 5 -26 20 0 16 7 20 30 20 23 0 30 -4 30 -20 0 -24 18 -27 27 -4 9 24 -23
44 -69 44 l-38 0 0 -75z m85 -30 c0 -15 -8 -21 -32 -23 -30 -3 -33 -1 -33 23
0 24 3 26 33 23 24 -2 32 -8 32 -23z"/>
<path d="M630 190 c0 -5 11 -10 25 -10 24 0 25 -2 25 -65 l0 -65 40 0 c42 0
80 26 80 54 0 21 -40 46 -72 46 -23 0 -28 4 -28 25 0 22 -4 25 -35 25 -19 0
-35 -4 -35 -10z m135 -90 c0 -21 -5 -26 -32 -28 -31 -3 -33 -1 -33 28 0 29 2
31 33 28 27 -2 32 -7 32 -28z"/>
<path d="M825 125 c0 -53 4 -75 13 -75 7 0 12 14 12 35 0 34 1 35 40 35 39 0
40 -1 40 -35 0 -19 5 -35 10 -35 6 0 10 32 10 75 0 43 -4 75 -10 75 -5 0 -10
-13 -10 -30 0 -28 -2 -30 -40 -30 -38 0 -40 2 -40 30 0 17 -5 30 -12 30 -9 0
-13 -22 -13 -75z"/>
<path d="M1177 148 c-4 -36 -13 -58 -27 -70 -23 -19 -25 -28 -7 -28 23 0 47
35 55 81 6 35 12 45 30 47 21 3 22 0 22 -62 0 -37 4 -66 10 -66 6 0 10 32 10
75 l0 75 -44 0 -43 0 -6 -52z"/>
<path d="M1338 189 c-22 -12 -24 -57 -3 -65 13 -5 12 -10 -5 -31 -23 -30 -25
-43 -6 -43 7 0 19 14 26 30 9 22 19 30 37 30 22 0 25 -4 21 -30 -3 -20 0 -30
9 -30 10 0 13 19 13 75 l0 75 -37 0 c-21 0 -46 -5 -55 -11z m72 -34 c0 -21 -5
-25 -29 -25 -17 0 -33 5 -36 10 -13 21 4 40 35 40 25 0 30 -4 30 -25z"/>
<path d="M1490 125 l0 -75 36 0 c48 0 74 16 74 45 0 27 -25 45 -64 45 -19 0
-26 5 -26 20 0 16 7 20 30 20 23 0 30 -4 30 -20 0 -24 18 -27 27 -4 9 24 -23
44 -69 44 l-38 0 0 -75z m85 -30 c0 -15 -8 -21 -32 -23 -30 -3 -33 -1 -33 23
0 24 3 26 33 23 24 -2 32 -8 32 -23z"/>
<path d="M1643 193 c-26 -10 -12 -20 29 -19 31 1 43 -3 46 -15 2 -11 -10 -18
-40 -25 -34 -7 -44 -14 -46 -32 -5 -36 14 -51 67 -50 l47 1 -4 61 c-3 40 -9
65 -20 74 -16 12 -56 15 -79 5z m77 -86 c0 -18 -21 -37 -41 -37 -22 0 -33 16
-25 35 7 19 66 20 66 2z"/>
<path d="M1007 68 c-2 -13 -8 -31 -12 -40 -12 -31 13 -20 30 12 19 36 19 50 1
50 -7 0 -16 -10 -19 -22z"/>
</g>
</svg>
