<?xml version="1.0" standalone="no"?>
<!DOCTYPE svg PUBLIC "-//W3C//DTD SVG 20010904//EN"
 "http://www.w3.org/TR/2001/REC-SVG-20010904/DTD/svg10.dtd">
<svg version="1.0" xmlns="http://www.w3.org/2000/svg"
 width="80px" height="40px" viewBox="0 0 264.000000 149.000000"
 preserveAspectRatio="xMidYMid meet">
<metadata>
Created by potrace 1.10, written by Peter Selinger 2001-2011
</metadata>
<g transform="translate(0.000000,149.000000) scale(0.100000,-0.100000)"
fill="#000000" stroke="none">
<path d="M20 1287 c0 -98 4 -147 12 -155 17 -17 259 -17 276 0 8 8 12 49 12
120 l0 108 30 0 c28 0 30 3 30 35 l0 35 -180 0 -180 0 0 -143z m340 108 c0
-10 -10 -15 -29 -15 -38 0 -42 -15 -40 -128 1 -51 -1 -95 -4 -98 -8 -9 -223
-8 -236 0 -7 5 -11 53 -11 132 l0 124 160 0 c136 0 160 -2 160 -15z"/>
<path d="M2070 1421 c0 -4 -33 -11 -72 -14 -40 -3 -140 -15 -223 -26 -82 -11
-165 -21 -182 -21 -18 0 -33 -3 -33 -7 0 -5 -30 -9 -68 -11 -37 -1 -112 -9
-166 -17 -55 -8 -117 -15 -138 -15 -21 0 -38 -4 -38 -8 0 -4 -28 -9 -62 -10
-35 -2 -110 -9 -167 -17 -58 -8 -119 -15 -138 -15 -18 0 -33 -4 -33 -10 0 -6
-26 -10 -57 -10 -32 0 -120 -7 -195 -17 -121 -15 -138 -19 -138 -36 0 -10 5
-15 10 -12 6 4 10 -7 10 -25 0 -18 -4 -29 -10 -25 -5 3 -10 1 -10 -5 0 -6 -4
-9 -9 -6 -20 13 -40 -6 -35 -32 3 -15 6 -47 7 -72 l2 -45 125 3 c69 2 129 8
135 13 5 5 44 9 87 9 43 0 78 4 78 9 0 5 42 12 93 16 50 4 103 9 117 12 14 2
62 6 108 9 45 3 82 9 82 13 0 5 37 11 83 15 45 4 100 10 122 12 22 2 77 7 123
10 45 3 82 9 82 13 0 5 37 12 83 16 45 4 96 10 112 12 17 2 69 6 118 10 48 3
87 9 87 14 0 5 19 9 43 9 39 0 143 14 195 25 19 5 22 1 22 -25 0 -39 13 -42
170 -38 l125 3 3 153 3 152 -181 0 -180 0 0 -35 c0 -32 2 -35 30 -35 29 0 30
-2 30 -45 0 -25 -4 -45 -10 -45 -5 0 -10 -13 -10 -28 0 -24 -6 -29 -42 -40
-43 -12 -183 -28 -328 -39 -41 -2 -79 -8 -85 -13 -5 -4 -53 -11 -105 -15 -52
-4 -106 -10 -120 -12 -14 -3 -59 -7 -100 -10 -41 -3 -79 -8 -85 -13 -5 -4 -48
-11 -95 -15 -47 -5 -96 -10 -110 -12 -14 -1 -63 -7 -110 -12 -47 -5 -150 -19
-230 -30 -80 -11 -169 -21 -198 -21 -29 0 -61 -4 -70 -9 -9 -4 -50 -12 -89
-15 -69 -7 -73 -6 -73 13 0 11 -4 23 -10 26 -28 17 -1 85 34 85 12 0 16 10 16
40 l0 40 55 0 c30 0 55 4 55 8 0 5 50 12 110 15 61 4 119 11 130 17 10 5 50
10 89 10 38 0 72 4 75 8 3 5 52 12 110 15 57 4 116 11 131 17 14 5 58 10 96
10 38 0 69 4 69 8 0 5 46 12 103 15 115 8 133 10 143 20 4 4 43 7 86 7 43 0
78 4 78 9 0 5 35 12 78 14 42 3 91 8 107 11 17 4 65 9 108 13 71 5 77 4 77
-13 1 -34 25 -56 54 -48 24 6 26 4 26 -27 0 -24 3 -30 11 -22 6 6 9 23 7 39
-3 27 -6 29 -40 26 -37 -3 -38 -3 -38 30 0 19 -5 39 -12 46 -14 14 -38 16 -38
3z m430 -143 l0 -133 -120 2 c-65 1 -124 4 -130 8 -6 4 -10 51 -10 116 l0 109
-30 0 c-20 0 -30 5 -30 15 0 13 24 15 160 15 l160 0 0 -132z"/>
<path d="M584 893 c2 -10 7 -34 11 -53 10 -51 28 -100 37 -100 4 0 8 -6 8 -13
0 -7 9 -19 20 -27 11 -8 20 -18 20 -23 0 -12 27 -37 39 -37 6 0 11 -4 11 -8 0
-5 18 -17 40 -28 38 -18 52 -34 30 -34 -5 0 -10 -9 -10 -20 0 -18 6 -20 53
-18 l52 1 -45 6 c-27 4 -39 9 -29 12 8 4 27 5 42 2 20 -4 27 -1 27 11 0 9 -4
16 -10 16 -5 0 -10 5 -10 11 0 11 -24 39 -34 39 -2 0 -6 -7 -8 -15 -3 -13 -6
-13 -28 0 -14 8 -32 18 -40 22 -8 4 -25 17 -38 30 -13 13 -27 23 -32 23 -6 0
-10 6 -10 14 0 8 -4 16 -8 18 -18 7 -52 101 -52 143 0 39 -3 45 -21 45 -15 0
-19 -5 -15 -17z"/>
<path d="M1333 563 c-26 -9 -13 -33 17 -33 17 0 30 4 30 10 0 13 -32 28 -47
23z"/>
<path d="M830 205 c0 -82 3 -105 14 -105 10 0 12 12 8 50 l-5 50 52 0 51 0 0
-50 c0 -38 4 -50 15 -50 12 0 15 18 15 105 0 87 -3 105 -15 105 -11 0 -15 -12
-15 -45 l0 -45 -51 0 -52 0 5 45 c4 34 2 45 -8 45 -11 0 -14 -22 -14 -105z"/>
<path d="M1033 243 c-26 -10 -12 -20 29 -19 31 1 43 -3 46 -15 2 -11 -10 -18
-40 -25 -34 -7 -44 -14 -46 -32 -5 -36 14 -51 67 -50 l47 1 -4 61 c-3 40 -9
65 -20 74 -16 12 -56 15 -79 5z m77 -93 c0 -23 -45 -39 -62 -22 -18 18 -1 42
32 42 23 0 30 -4 30 -20z"/>
<path d="M1190 175 l0 -75 36 0 c48 0 74 16 74 45 0 27 -25 45 -64 45 -19 0
-26 5 -26 20 0 16 7 20 30 20 23 0 30 -4 30 -20 0 -24 18 -27 27 -4 9 24 -23
44 -69 44 l-38 0 0 -75z m85 -30 c0 -15 -8 -21 -32 -23 -30 -3 -33 -1 -33 23
0 24 3 26 33 23 24 -2 32 -8 32 -23z"/>
<path d="M1310 240 c0 -5 11 -10 25 -10 24 0 25 -2 25 -65 l0 -65 40 0 c42 0
80 26 80 54 0 21 -40 46 -72 46 -23 0 -28 4 -28 25 0 22 -4 25 -35 25 -19 0
-35 -4 -35 -10z m135 -90 c0 -21 -5 -26 -32 -28 -31 -3 -33 -1 -33 28 0 29 2
31 33 28 27 -2 32 -7 32 -28z"/>
<path d="M1515 175 c0 -53 4 -75 13 -75 7 0 12 14 12 35 0 34 1 35 40 35 39 0
40 -1 40 -35 0 -19 5 -35 10 -35 6 0 10 32 10 75 0 43 -4 75 -10 75 -5 0 -10
-13 -10 -30 0 -28 -2 -30 -40 -30 -38 0 -40 2 -40 30 0 17 -5 30 -12 30 -9 0
-13 -22 -13 -75z"/>
<path d="M1875 218 c-13 -64 -27 -98 -41 -98 -9 0 -14 -11 -14 -35 0 -24 5
-35 15 -35 9 0 15 9 15 25 0 24 2 25 65 25 63 0 65 -1 65 -25 0 -14 5 -25 10
-25 6 0 10 16 10 35 0 24 -5 35 -15 35 -12 0 -15 14 -15 65 l0 65 -44 0 c-42
0 -45 -2 -51 -32z m75 -43 l0 -55 -40 0 c-36 0 -40 2 -32 18 5 9 12 34 16 55
6 31 11 37 31 37 24 0 25 -3 25 -55z"/>
<path d="M2038 239 c-22 -12 -24 -57 -3 -65 13 -5 12 -10 -5 -31 -23 -30 -25
-43 -6 -43 7 0 19 14 26 30 9 22 19 30 37 30 22 0 25 -4 21 -30 -3 -20 0 -30
9 -30 10 0 13 19 13 75 l0 75 -37 0 c-21 0 -46 -5 -55 -11z m72 -34 c0 -21 -5
-25 -29 -25 -17 0 -33 5 -36 10 -13 21 4 40 35 40 25 0 30 -4 30 -25z"/>
<path d="M2202 234 c-17 -12 -22 -25 -22 -58 0 -64 40 -93 91 -66 30 17 22 30
-10 17 -23 -8 -33 -8 -45 2 -20 17 -21 61 -2 87 13 17 18 18 45 7 32 -12 40
-6 19 15 -17 17 -49 15 -76 -4z"/>
<path d="M2325 175 c0 -53 4 -75 13 -75 7 0 12 14 12 35 0 34 1 35 40 35 39 0
40 -1 40 -35 0 -19 5 -35 10 -35 6 0 10 32 10 75 0 43 -4 75 -10 75 -5 0 -10
-13 -10 -30 0 -28 -2 -30 -40 -30 -38 0 -40 2 -40 30 0 17 -5 30 -12 30 -9 0
-13 -22 -13 -75z"/>
<path d="M2503 243 c-26 -10 -12 -20 29 -19 31 1 43 -3 46 -15 2 -11 -10 -18
-40 -25 -34 -7 -44 -14 -46 -32 -5 -36 14 -51 67 -50 l47 1 -4 61 c-3 40 -9
65 -20 74 -16 12 -56 15 -79 5z m77 -93 c0 -23 -45 -39 -62 -22 -18 18 -1 42
32 42 23 0 30 -4 30 -20z"/>
<path d="M1693 103 c-6 -21 -9 -40 -7 -43 8 -8 44 43 44 63 0 31 -25 18 -37
-20z"/>
</g>
</svg>
