<?xml version="1.0" standalone="no"?>
<!DOCTYPE svg PUBLIC "-//W3C//DTD SVG 20010904//EN"
 "http://www.w3.org/TR/2001/REC-SVG-20010904/DTD/svg10.dtd">
<svg version="1.0" xmlns="http://www.w3.org/2000/svg"
 width="80" height="40" viewBox="0 0 212.000000 109.000000"
 preserveAspectRatio="xMidYMid meet">
<metadata>
Created by potrace 1.10, written by Peter Selinger 2001-2011
</metadata>
<g transform="translate(0.000000,109.000000) scale(0.050000,-0.050000)"
fill="#000000" stroke="none">
<path d="M3433 2131 c-367 -131 -492 -622 -233 -916 l80 -91 0 -415 c0 -553
65 -669 377 -669 292 0 363 136 363 692 l0 393 63 71 c403 460 -71 1141 -650
935z m439 -88 c319 -164 386 -600 128 -830 l-60 -53 0 -421 c0 -456 -8 -495
-112 -577 -145 -114 -385 -46 -461 132 -20 48 -27 172 -27 472 l0 407 -59 56
c-404 387 93 1072 591 814z"/>
<path d="M800 1940 l0 -100 -241 0 c-316 0 -413 -45 -488 -225 -37 -87 -47
-1348 -11 -1414 23 -44 128 -84 176 -67 106 38 104 23 104 708 0 762 -23 702
267 694 l203 -6 6 -95 c6 -90 9 -95 65 -95 l59 0 0 350 0 350 -70 0 -70 0 0
-100z"/>
<path d="M1240 1690 l0 -350 59 0 c56 0 59 5 65 95 l6 95 197 6 c276 8 253 69
253 -667 l0 -627 47 -54 c65 -75 162 -75 227 1 l48 56 -6 672 c-8 893 -14 904
-506 923 l-260 10 -6 95 c-6 90 -9 95 -65 95 l-59 0 0 -350z"/>
</g>
</svg>
