 <svg version="1.0" xmlns="http://www.w3.org/2000/svg"  width="80" height="40" viewBox="0 0 221.000000 109.000000"  preserveAspectRatio="xMidYMid meet">  <g transform="translate(0.000000,109.000000) scale(0.100000,-0.100000)" fill="#000000" stroke="none"> <path d="M430 996 l0 -43 -127 -5 c-138 -5 -167 -14 -215 -65 -15 -15 -32 -41 -37 -56 -7 -18 -11 -154 -11 -373 0 -331 1 -345 20 -364 28 -28 90 -27 116 1 18 20 19 43 22 348 2 291 4 327 19 339 11 8 52 12 115 12 l98 0 0 -50 0 -50 35 0 35 0 0 175 0 175 -35 0 c-35 0 -35 0 -35 -44z"/> <path d="M610 865 l0 -175 29 0 c28 0 30 2 33 48 l3 47 97 3 c151 4 138 37 138 -342 0 -312 1 -324 21 -350 26 -33 88 -37 119 -6 19 19 20 33 20 365 0 372 0 375 -54 433 -41 46 -74 55 -213 60 l-133 5 0 43 c0 42 -1 44 -30 44 l-30 0 0 -175z"/> <path d="M1708 927 c-69 -24 -156 -77 -198 -122 -22 -24 -22 -25 -4 -25 11 0 42 -22 69 -50 27 -27 54 -50 60 -50 7 0 22 11 34 24 88 94 314 94 402 0 12 -13 27 -24 34 -24 6 0 32 22 58 48 66 67 64 89 -14 141 -124 83 -300 106 -441 58z m248 -18 c66 -12 144 -46 189 -83 l30 -25 -35 -35 -35 -36 -38 26 c-58 39 -112 54 -197 54 -85 0 -139 -15 -197 -54 l-38 -26 -35 36 -35 35 30 25 c43 35 112 67 175 80 71 16 113 16 186 3z"/> <path d="M1801 720 c-94 -20 -186 -108 -212 -204 -15 -56 -6 -153 20 -204 104 -204 403 -211 515 -12 28 49 31 64 31 140 0 76 -3 91 -30 139 -30 54 -83 102 -140 126 -42 18 -132 25 -184 15z m184 -58 c51 -26 100 -77 120 -124 l15 -38 -249 0 -250 0 10 29 c22 62 95 128 169 152 41 14 142 3 185 -19z m145 -222 c0 -6 -94 -10 -261 -10 -171 0 -258 3 -254 10 4 6 102 10 261 10 163 0 254 -4 254 -10z m-25 -97 c-20 -48 -68 -99 -120 -126 -57 -31 -173 -30 -231 0 -48 25 -108 91 -123 134 l-10 29 250 0 249 0 -15 -37z"/> </g> </svg> 